<?xml version="1.0" encoding="UTF-8"?>
<svg id="Web_Development" data-name="Web Development" xmlns="http://www.w3.org/2000/svg" viewBox="0 0 200 200">
  <defs>
    <style>
      .cls-1 {
        stroke: #327177;
      }

      .cls-1, .cls-2 {
        fill: none;
        stroke-linecap: round;
        stroke-miterlimit: 10;
        stroke-width: 3px;
      }

      .cls-3 {
        fill: #4f8d8c;
      }

      .cls-4 {
        fill: #6ea39e;
      }

      .cls-5 {
        fill: #255c67;
      }

      .cls-2 {
        stroke: #6ea39e;
      }
    </style>
  
    <style id="hover-color-overrides">
      .cls-5 { fill: #044850; }
      #Outer_Ring { fill: #6EA39E; }
      #Inner_Ring { fill: #044850; }
      .cls-1 { stroke: #E16F23; }
      .cls-2 { stroke: #FBE1B6; }
      #Radar_circle { fill: #FBE1B6; }
      #Radar_circle-2 { fill: #FBE1B6; }
      #Radar_circle-3 { fill: #329C9F; }
      #Radar_circle-4 { fill: #FBE1B6; }
      #Bubble, #Bubble-2, #Bubble-3, #Bubble-4,
      #Bubble-5, #Bubble-6, #Bubble-7, #Bubble-8 {
        fill: #329C9F;
      }
    
    </style>
  </defs>
  <rect class="cls-5" width="200" height="200"/>
  <g id="Radar">
    <circle id="Outer_Ring" data-name="Outer Ring" class="cls-3" cx="100" cy="100" r="82.86"/>
    <circle id="Inner_Ring" data-name="Inner Ring" class="cls-5" cx="100" cy="100" r="67.9"/>
    <circle id="Bolt" class="cls-5" cx="25.32" cy="99.22" r="2.79"/>
    <circle id="Bolt-2" data-name="Bolt" class="cls-5" cx="48.31" cy="46.27" r="2.79"/>
    <circle id="Bolt-3" data-name="Bolt" class="cls-5" cx="100" cy="24.57" r="2.79"/>
    <circle id="Bolt-4" data-name="Bolt" class="cls-5" cx="152.66" cy="46.27" r="2.79"/>
    <circle id="Bolt-5" data-name="Bolt" class="cls-5" cx="175.2" cy="99.22" r="2.79"/>
    <circle id="Bolt-6" data-name="Bolt" class="cls-5" cx="152.66" cy="153.43" r="2.79"/>
    <circle id="Bolt-7" data-name="Bolt" class="cls-5" cx="100" cy="174.91" r="2.79"/>
    <circle id="Bolt-8" data-name="Bolt" class="cls-5" cx="48.31" cy="153.43" r="2.79"/>
    <path id="Radar_Arc" data-name="Radar Arc" class="cls-1" d="M139.07,74.88c4.41,7.06,6.95,15.4,6.95,24.34,0,25.42-20.61,46.03-46.03,46.03-9.97,0-19.19-3.17-26.73-8.55"/>
    <path id="Radar_Arc-2" data-name="Radar Arc" class="cls-2" d="M61.99,125.18c-5.06-7.39-8.02-16.33-8.02-25.96,0-25.42,20.61-46.03,46.03-46.03,9.53,0,18.39,2.9,25.73,7.86"/>
    <path id="Radar_Arc-3" data-name="Radar Arc" class="cls-1" d="M86.83,74.93c3.91-2.13,8.4-3.33,13.17-3.33,15.26,0,27.62,12.37,27.62,27.62s-12.37,27.62-27.62,27.62-27.62-12.37-27.62-27.62c0-4.79,1.22-9.3,3.36-13.22"/>
    <line id="Spoke" class="cls-2" x1="100" y1="36.53" x2="100" y2="89.1"/>
    <line id="Spoke-2" data-name="Spoke" class="cls-1" x1="100" y1="111.2" x2="100" y2="163.78"/>
    <line id="Spoke-3" data-name="Spoke" class="cls-2" x1="89.77" y1="99.22" x2="37.2" y2="99.22"/>
    <line id="Spoke-4" data-name="Spoke" class="cls-1" x1="163.16" y1="99.22" x2="110.59" y2="99.22"/>
    <line id="Spoke-5" data-name="Spoke" class="cls-2" x1="106.83" y1="106.29" x2="144" y2="143.47"/>
    <line id="Spoke-6" data-name="Spoke" class="cls-1" x1="61.67" y1="137.95" x2="55.1" y2="144.52"/>
    <line id="Spoke-7" data-name="Spoke" class="cls-1" x1="92.27" y1="107.35" x2="73.69" y2="125.93"/>
    <line id="Spoke-8" data-name="Spoke" class="cls-1" x1="126.7" y1="73.57" x2="106.83" y2="93.45"/>
    <line id="Spoke-9" data-name="Spoke" class="cls-1" x1="144" y1="56.27" x2="138.76" y2="61.52"/>
    <line id="Spoke-10" data-name="Spoke" class="cls-1" x1="74.68" y1="75.85" x2="55.1" y2="56.27"/>
    <line id="Spoke-11" data-name="Spoke" class="cls-1" x1="92.27" y1="93.45" x2="85.15" y2="86.33"/>
    <circle id="Radar_circle" data-name="Radar circle" class="cls-4" cx="100" cy="99.22" r="5.88"/>
    <circle id="Radar_circle-2" data-name="Radar circle" class="cls-4" cx="66.91" cy="131.74" r="4.78"/>
    <circle id="Radar_circle-3" data-name="Radar circle" class="cls-4" cx="81.02" cy="80.43" r="4.58"/>
    <circle id="Radar_circle-4" data-name="Radar circle" class="cls-4" cx="133.09" cy="67.59" r="4.78"/>
  </g>
  <circle id="Bubble" class="cls-3" cx="28.71" cy="27.2" r="5.02"/>
  <circle id="Bubble-2" data-name="Bubble" class="cls-3" cx="12.96" cy="54.38" r="3.48"/>
  <circle id="Bubble-3" data-name="Bubble" class="cls-3" cx="14.35" cy="151.42" r="3.48"/>
  <circle id="Bubble-4" data-name="Bubble" class="cls-3" cx="29.09" cy="171.02" r="2.54"/>
  <circle id="Bubble-5" data-name="Bubble" class="cls-3" cx="169.8" cy="21.26" r="4.18"/>
  <circle id="Bubble-6" data-name="Bubble" class="cls-3" cx="181.42" cy="36.48" r="7.45"/>
  <circle id="Bubble-7" data-name="Bubble" class="cls-3" cx="181.3" cy="161.99" r="3.48"/>
  <circle id="Bubble-8" data-name="Bubble" class="cls-3" cx="172.46" cy="176.59" r="2.97"/>
</svg>